HIERARCHY
ROOT joint_0
{
	OFFSET 0.000000 0.000000 0.000000
	CHANNELS 6 Xposition Yposition Zposition Zrotation Yrotation Xrotation 
	JOINT joint_1
	{
		OFFSET 7.683380 1.521202 101.454956
		CHANNELS 3 Zrotation Yrotation Xrotation
		JOINT joint_2
		{
			OFFSET -4.816528 0.859650 92.807007
			CHANNELS 3 Zrotation Yrotation Xrotation
			JOINT joint_3
			{
				OFFSET -7.237778 1.114670 92.543091
				CHANNELS 3 Zrotation Yrotation Xrotation
				JOINT joint_4
				{
					OFFSET 0.479660 2.971886 127.844971
					CHANNELS 3 Zrotation Yrotation Xrotation
					JOINT joint_5
					{
						OFFSET 15.211349 9.937172 76.390015
						CHANNELS 3 Zrotation Yrotation Xrotation
						End Site
						{
							OFFSET 0.000000 0.000000 0.000000
						}
					}
				}
				JOINT joint_6
				{
					OFFSET 2.887054 -26.053230 72.331909
					CHANNELS 3 Zrotation Yrotation Xrotation
					JOINT joint_7
					{
						OFFSET 10.229767 -132.540291 -13.979004
						CHANNELS 3 Zrotation Yrotation Xrotation
						JOINT joint_8
						{
							OFFSET 17.695633 -10.988861 -262.204956
							CHANNELS 3 Zrotation Yrotation Xrotation
							JOINT joint_9
							{
								OFFSET 11.003433 -0.031860 -255.909973
								CHANNELS 3 Zrotation Yrotation Xrotation
								End Site
								{
									OFFSET 0.000000 0.000000 0.000000
								}
							}
						}
					}
				}
				JOINT joint_10
				{
					OFFSET -2.092239 29.348854 71.062988
					CHANNELS 3 Zrotation Yrotation Xrotation
					JOINT joint_11
					{
						OFFSET -11.853149 131.935837 -17.877075
						CHANNELS 3 Zrotation Yrotation Xrotation
						JOINT joint_12
						{
							OFFSET 14.084503 10.700203 -262.437012
							CHANNELS 3 Zrotation Yrotation Xrotation
							JOINT joint_13
							{
								OFFSET 48.202347 13.087273 -251.229919
								CHANNELS 3 Zrotation Yrotation Xrotation
								End Site
								{
									OFFSET 0.000000 0.000000 0.000000
								}
							}
						}
					}
				}
			}
		}
	}
	JOINT joint_14
	{
		OFFSET 4.150818 -83.296913 -102.580017
		CHANNELS 3 Zrotation Yrotation Xrotation
		JOINT joint_15
		{
			OFFSET -36.423187 -7.342392 -449.858948
			CHANNELS 3 Zrotation Yrotation Xrotation
			JOINT joint_16
			{
				OFFSET -41.100235 -7.280350 -426.202026
				CHANNELS 3 Zrotation Yrotation Xrotation
				JOINT joint_17
				{
					OFFSET 175.972961 13.159744 -75.358000
					CHANNELS 3 Zrotation Yrotation Xrotation
					End Site
					{
						OFFSET 0.000000 0.000000 0.000000
					}
				}
			}
		}
	}
	JOINT joint_18
	{
		OFFSET -9.062592 83.477568 -102.093018
		CHANNELS 3 Zrotation Yrotation Xrotation
		JOINT joint_19
		{
			OFFSET -39.145699 -6.092751 -449.645996
			CHANNELS 3 Zrotation Yrotation Xrotation
			JOINT joint_20
			{
				OFFSET -32.926178 -7.016375 -426.911980
				CHANNELS 3 Zrotation Yrotation Xrotation
				JOINT joint_21
				{
					OFFSET 176.289299 16.780729 -73.883997
					CHANNELS 3 Zrotation Yrotation Xrotation
					End Site
					{
						OFFSET 0.000000 0.000000 0.000000
					}
				}
			}
		}
	}
}
MOTION
Frames: 15
Frame Time: 0.016667
193.440460 -81.302818 1074.005981 0.086599 2.925102 0.778251 -0.698910 1.133007 0.625081 -0.724750 -0.298896 -0.049908 -0.725721 0.332614 0.039298 0.192127 -6.166894 3.253339 0.000000 0.000000 0.000000 5.599912 3.977823 -0.214721 -0.590228 4.598602 -0.543646 0.116361 -7.155896 4.091660 0.000000 0.000000 0.000000 -1.875026 2.638732 2.847049 -0.928757 2.314995 -2.682165 -1.083178 2.721567 -6.772395 0.000000 0.000000 0.000000 -2.266040 -1.651019 -0.343939 -2.423141 5.690476 0.133687 -2.230107 -3.417081 -0.692332 0.000000 0.000000 0.000000 1.215896 -2.004088 1.000423 1.350049 4.259274 -1.447150 1.298097 -1.460305 0.680128 0.000000 0.000000 0.000000 
201.419266 -82.112724 1077.088989 -0.099363 2.610963 0.863819 -0.865593 2.468318 0.438013 -0.880431 -0.420359 -0.056875 -0.881839 0.510345 0.077957 0.313684 -7.067106 3.375324 0.000000 0.000000 0.000000 6.661979 3.980759 -0.849645 -0.609720 4.863525 0.730179 0.052822 -9.432405 3.328717 0.000000 0.000000 0.000000 -1.733619 2.981717 4.294889 -0.944404 2.342362 -4.929958 -0.961292 1.707353 -5.723678 0.000000 0.000000 0.000000 -2.348541 -2.526881 -0.127037 -2.500104 8.812083 -0.487937 -2.377565 -3.214694 -0.764525 0.000000 0.000000 0.000000 1.388052 -2.199805 0.885987 1.478687 6.166546 -1.346143 1.480502 -1.369942 0.745743 0.000000 0.000000 0.000000 
208.750488 -83.146133 1080.489990 -0.320452 2.212438 0.916530 -0.892677 4.013809 0.290187 -0.918300 -0.600598 -0.099912 -0.920137 0.731851 0.105389 0.395932 -7.778060 3.588898 0.000000 0.000000 0.000000 7.316103 3.549220 -1.436986 -0.643221 4.635608 1.779793 0.000359 -11.242574 2.868067 0.000000 0.000000 0.000000 -1.894509 3.040785 5.814620 -0.972894 2.151946 -7.051090 -0.864920 0.893291 -4.900911 0.000000 0.000000 0.000000 -2.304650 -3.886787 -0.003911 -2.484717 12.911018 -0.996501 -2.467252 -3.212409 -0.793374 0.000000 0.000000 0.000000 1.495218 -2.618932 0.870501 1.550199 8.568667 -1.276344 1.629156 -1.174700 0.785769 0.000000 0.000000 0.000000 
214.281754 -84.870186 1083.993042 -0.615533 1.946005 0.914140 -0.561055 5.641530 0.099687 -0.638179 -0.846192 -0.105222 -0.655880 1.023668 0.033188 0.416870 -8.222768 3.884247 0.000000 0.000000 0.000000 7.147805 2.478451 -1.777046 -0.726487 3.613132 2.077608 -0.000890 -12.126409 3.661766 0.000000 0.000000 0.000000 -2.991084 2.662053 7.470283 -1.079401 1.710299 -8.486365 -0.924711 0.303679 -5.044692 0.000000 0.000000 0.000000 -1.953050 -6.158919 -0.127419 -2.232464 18.223828 -1.018034 -2.312322 -3.678963 -0.680631 0.000000 0.000000 0.000000 1.443488 -3.562930 1.117652 1.511496 11.453782 -1.432527 1.677383 -0.802724 0.765476 0.000000 0.000000 0.000000 
218.222000 -87.101952 1087.862061 -0.959050 1.699109 0.995377 0.073996 7.497299 -0.348721 -0.137830 -1.113991 0.039394 -0.198842 1.348552 -0.107112 0.376528 -8.427348 4.292047 0.000000 0.000000 0.000000 6.267756 0.840326 -1.916668 -0.814972 1.887800 1.782214 0.030157 -12.431885 5.353017 0.000000 0.000000 0.000000 -4.821417 1.915264 9.378962 -1.250135 1.023290 -9.579716 -1.088391 -0.197169 -5.844290 0.000000 0.000000 0.000000 -1.366401 -9.213220 -0.577205 -1.767249 24.681648 -0.614395 -1.903834 -3.974633 -0.473600 0.000000 0.000000 0.000000 1.240544 -4.962663 1.409977 1.369367 14.920831 -1.736455 1.637852 -0.045623 0.669892 0.000000 0.000000 0.000000 
224.035110 -89.186378 1091.029053 -1.167204 1.433471 1.154999 0.677648 8.843615 -0.781116 0.242978 -1.318768 0.199940 0.133486 1.544736 -0.203316 0.317960 -8.468756 4.643257 0.000000 0.000000 0.000000 5.705804 -0.887974 -2.059221 -0.774904 0.090198 1.494367 0.046699 -11.746013 6.356225 0.000000 0.000000 0.000000 -6.376194 1.122383 10.990679 -1.364843 0.286182 -10.455355 -1.151959 -0.008402 -6.366413 0.000000 0.000000 0.000000 -0.833104 -11.904649 -1.458673 -1.331122 30.588505 0.275389 -1.407913 -3.928423 -0.262438 0.000000 0.000000 0.000000 0.928983 -6.002557 1.670234 1.173321 17.897650 -2.163101 1.517973 0.921788 0.520821 0.000000 0.000000 0.000000 
234.716141 -90.536499 1092.639038 -1.262371 1.184415 1.278213 1.005684 8.878221 -0.815228 0.338390 -1.432364 0.195487 0.202942 1.625072 -0.190334 0.271471 -8.376489 4.772626 0.000000 0.000000 0.000000 6.239069 -2.442755 -2.183223 -0.510747 -1.431715 1.427132 0.059521 -9.352671 5.516255 0.000000 0.000000 0.000000 -6.949519 0.461680 11.685264 -1.297603 -0.407283 -11.076133 -0.932925 1.729827 -5.873689 0.000000 0.000000 0.000000 -0.353268 -13.685438 -2.861445 -0.976668 35.368872 1.874149 -0.834268 -4.080540 -0.012909 0.000000 0.000000 0.000000 0.601725 -6.087825 1.956289 0.998562 19.601390 -2.705260 1.369585 1.684444 0.381610 0.000000 0.000000 0.000000 
248.963684 -91.391426 1093.105957 -1.313661 0.968546 1.394652 1.138723 7.857899 -0.619170 0.296773 -1.439812 0.115283 0.147018 1.605377 -0.117423 0.220907 -8.100270 4.721541 0.000000 0.000000 0.000000 7.479138 -3.990203 -1.896755 -0.130666 -2.948324 0.986560 0.091526 -5.259190 3.568445 0.000000 0.000000 0.000000 -6.929058 -0.185494 11.563099 -1.043261 -1.111386 -11.329103 -0.460714 4.796227 -4.653754 0.000000 0.000000 0.000000 0.222237 -14.982875 -4.804374 -0.583700 39.690264 4.157262 -0.035911 -4.445762 0.337517 0.000000 0.000000 0.000000 0.258502 -5.534714 2.252866 0.823208 20.454766 -3.356350 1.189785 2.278314 0.247770 0.000000 0.000000 0.000000 
263.545837 -92.494064 1093.026978 -1.180049 0.833902 1.557852 1.120277 6.641522 -0.496631 0.253644 -1.334387 0.090613 0.098532 1.460127 -0.054828 0.194433 -7.907498 4.565665 0.000000 0.000000 0.000000 8.897096 -5.419179 -1.446945 0.107367 -4.343419 0.239938 0.064852 -0.996391 1.519708 0.000000 0.000000 0.000000 -6.797441 -0.831774 11.195756 -0.754630 -1.792453 -11.367094 0.021746 7.340632 -3.268344 0.000000 0.000000 0.000000 0.457200 -15.793595 -6.560765 -0.501193 42.741501 5.593146 0.172737 -4.719885 0.455177 0.000000 0.000000 0.000000 -0.078915 -5.024727 2.476528 0.607796 21.227473 -3.948129 0.969360 2.779621 0.107994 0.000000 0.000000 0.000000 
276.229614 -94.294983 1092.760986 -0.757124 0.868234 1.731544 1.031474 5.710504 -0.514760 0.284992 -1.177613 0.133239 0.138317 1.284387 -0.054446 0.222431 -8.109455 4.342826 0.000000 0.000000 0.000000 10.223657 -6.692783 -1.339102 0.120896 -5.529595 -0.461313 -0.058374 2.513714 -0.259632 0.000000 0.000000 0.000000 -6.866806 -1.521313 10.965092 -0.594978 -2.484353 -11.279008 0.289255 8.108775 -2.128088 0.000000 0.000000 0.000000 -0.138830 -16.116247 -7.355441 -1.140703 43.780885 4.756210 -1.208135 -4.939366 -0.038126 0.000000 0.000000 0.000000 -0.401686 -5.133055 2.641136 0.346847 22.537811 -4.338599 0.720419 3.186989 -0.033043 0.000000 0.000000 0.000000 
288.212189 -96.518929 1092.089966 -0.126227 1.070235 1.875201 0.878711 4.697699 -0.523446 0.351170 -0.923169 0.180199 0.232053 1.058411 -0.095658 0.289918 -8.592268 4.002556 0.000000 0.000000 0.000000 11.632951 -7.864189 -1.449504 -0.097315 -6.555669 -1.193970 -0.320333 5.934016 -2.093771 0.000000 0.000000 0.000000 -6.955307 -2.256455 10.589160 -0.500199 -3.189265 -10.959695 0.435605 7.786243 -1.033851 0.000000 0.000000 0.000000 -1.421914 -16.015801 -7.428504 -2.416727 43.084672 2.250407 -3.879707 -5.180083 -1.028060 0.000000 0.000000 0.000000 -0.701161 -5.628464 2.803344 0.062689 24.115078 -4.580408 0.458125 3.466321 -0.165832 0.000000 0.000000 0.000000 
300.177429 -99.289093 1091.097046 0.471708 1.274565 2.003594 0.787266 3.897439 -0.492592 0.433798 -0.687759 0.212478 0.340046 0.855235 -0.132795 0.343230 -9.000936 3.648276 0.000000 0.000000 0.000000 12.891697 -8.952221 -1.643533 -0.509383 -7.472948 -1.843635 -0.647688 8.535385 -3.532928 0.000000 0.000000 0.000000 -7.113450 -2.963280 10.265776 -0.459888 -3.855250 -10.638188 0.479085 6.723750 -0.195225 0.000000 0.000000 0.000000 -2.657424 -15.923125 -7.605111 -3.686406 41.852790 -0.039908 -6.394581 -5.518331 -1.956869 0.000000 0.000000 0.000000 -1.006144 -5.979519 3.073722 -0.225919 25.446033 -4.923124 0.162037 3.666147 -0.302954 0.000000 0.000000 0.000000 
312.634460 -102.802689 1089.806030 0.866355 1.363951 2.122130 0.814505 3.549684 -0.421344 0.542722 -0.573608 0.214882 0.463860 0.743885 -0.138365 0.345094 -9.054005 3.389465 0.000000 0.000000 0.000000 13.885623 -9.991035 -1.940949 -0.965538 -8.325465 -2.111586 -0.918107 10.017694 -4.421879 0.000000 0.000000 0.000000 -7.443893 -3.643539 10.168530 -0.463450 -4.492642 -10.425600 0.444100 5.443208 0.218368 0.000000 0.000000 0.000000 -3.322351 -16.084005 -8.523826 -4.534555 40.994041 -0.806775 -7.944814 -6.471771 -2.474985 0.000000 0.000000 0.000000 -1.360736 -5.750294 3.584652 -0.501922 26.083281 -5.632253 -0.200822 3.740438 -0.452295 0.000000 0.000000 0.000000 
325.358215 -107.006149 1088.177002 1.164651 1.391856 2.235780 0.903987 3.554925 -0.331945 0.673323 -0.558438 0.196888 0.603955 0.709236 -0.125792 0.317586 -8.885117 3.200215 0.000000 0.000000 0.000000 14.728287 -10.987119 -2.494369 -1.405190 -9.103207 -1.919763 -1.119626 10.707039 -4.987161 0.000000 0.000000 0.000000 -7.918025 -4.334003 10.215571 -0.502588 -5.128277 -10.220853 0.333530 3.874872 0.292615 0.000000 0.000000 0.000000 -3.724727 -16.302559 -9.892577 -5.236361 40.005299 -0.734120 -9.038335 -7.948923 -2.788691 0.000000 0.000000 0.000000 -1.755470 -5.122290 4.278766 -0.774579 26.203871 -6.607936 -0.620898 3.674433 -0.608606 0.000000 0.000000 0.000000 
337.821716 -111.441681 1086.406982 1.372677 1.420664 2.323764 0.998587 3.762322 -0.077288 0.777366 -0.600100 0.121186 0.720692 0.739712 -0.080170 0.296903 -8.732685 3.077242 0.000000 0.000000 0.000000 15.309666 -11.822877 -3.312735 -1.641839 -9.759875 -1.569682 -1.001456 9.317174 -4.863554 0.000000 0.000000 0.000000 -8.202226 -4.775607 10.480037 -0.600804 -5.573463 -10.348004 0.087444 0.455792 0.298837 0.000000 0.000000 0.000000 -3.873475 -16.921364 -11.195559 -5.662845 39.456875 -0.402749 -9.658257 -9.164694 -2.938559 0.000000 0.000000 0.000000 -2.125239 -4.546722 4.940920 -1.016182 26.392458 -7.468780 -0.996469 3.690327 -0.754916 0.000000 0.000000 0.000000 
